<svg xmlns="http://www.w3.org/2000/svg" style="display:none">
  <!-- Basic arrows / navigation -->
  <symbol id="back" viewBox="0 0 24 24"><path d="M15 18l-6-6 6-6" stroke="currentColor" stroke-width="2" fill="none" stroke-linecap="round" stroke-linejoin="round"/></symbol>
  <symbol id="arrow-left" viewBox="0 0 24 24"><path d="M5 12h14M11 6l-6 6 6 6" stroke="currentColor" stroke-width="2" fill="none" stroke-linecap="round" stroke-linejoin="round"/></symbol>
  <symbol id="arrow-right" viewBox="0 0 24 24"><path d="M19 12H5M13 6l6 6-6 6" stroke="currentColor" stroke-width="2" fill="none" stroke-linecap="round" stroke-linejoin="round"/></symbol>
  <symbol id="chevron-left" viewBox="0 0 24 24"><path d="M14 6l-6 6 6 6" stroke="currentColor" stroke-width="2" fill="none" stroke-linecap="round" stroke-linejoin="round"/></symbol>
  <symbol id="chevron-right" viewBox="0 0 24 24"><path d="M10 6l6 6-6 6" stroke="currentColor" stroke-width="2" fill="none" stroke-linecap="round" stroke-linejoin="round"/></symbol>
  <symbol id="level-up" viewBox="0 0 24 24"><path d="M7 17V9a1 1 0 011-1h8m0 0l-4-4m4 4l-4 4" stroke="currentColor" stroke-width="2" fill="none" stroke-linecap="round" stroke-linejoin="round"/></symbol>

  <!-- Actions -->
  <symbol id="save" viewBox="0 0 24 24"><path d="M5 5h11l3 3v11a1 1 0 01-1 1H6a1 1 0 01-1-1V5z" fill="none" stroke="currentColor" stroke-width="2" stroke-linejoin="round"/><path d="M9 5v6h6V5" fill="none" stroke="currentColor" stroke-width="2" stroke-linejoin="round"/></symbol>
  <symbol id="delete" viewBox="0 0 24 24"><path d="M6 7h12M10 7v10m4-10v10M5 7l1 12a1 1 0 001 1h10a1 1 0 001-1l1-12M9 7V5a1 1 0 011-1h4a1 1 0 011 1v2" fill="none" stroke="currentColor" stroke-width="2" stroke-linecap="round" stroke-linejoin="round"/></symbol>
  <symbol id="refresh" viewBox="0 0 24 24"><path d="M4 4v6h6M20 20v-6h-6" fill="none" stroke="currentColor" stroke-width="2" stroke-linecap="round" stroke-linejoin="round"/><path d="M5 15a7 7 0 0012 2l2-3M19 9a7 7 0 00-12-2L5 10" fill="none" stroke="currentColor" stroke-width="2" stroke-linecap="round" stroke-linejoin="round"/></symbol>
  <symbol id="check" viewBox="0 0 24 24"><path d="M5 13l4 4L19 7" fill="none" stroke="currentColor" stroke-width="2" stroke-linecap="round" stroke-linejoin="round"/></symbol>
  <symbol id="external" viewBox="0 0 24 24"><path d="M14 3h7v7M10 14L21 3M5 5h6M5 5v14h14v-6" fill="none" stroke="currentColor" stroke-width="2" stroke-linecap="round" stroke-linejoin="round"/></symbol>
  <symbol id="link" viewBox="0 0 24 24"><path d="M10 14l4-4M7 17a4 4 0 010-6l2-2m6-2l2-2a4 4 0 010 6l-2 2" fill="none" stroke="currentColor" stroke-width="2" stroke-linecap="round" stroke-linejoin="round"/></symbol>
  <symbol id="unlink" viewBox="0 0 24 24"><path d="M10 14l4-4M8 12l-1.5 1.5a4 4 0 005.657 5.657L14 17M16 12l1.5-1.5a4 4 0 00-5.657-5.657L10 7" fill="none" stroke="currentColor" stroke-width="2" stroke-linecap="round" stroke-linejoin="round"/></symbol>
  <symbol id="clear" viewBox="0 0 24 24"><path d="M6 6l12 12M6 18L18 6" fill="none" stroke="currentColor" stroke-width="2" stroke-linecap="round"/></symbol>
  <symbol id="plus" viewBox="0 0 24 24"><path d="M12 5v14M5 12h14" fill="none" stroke="currentColor" stroke-width="2" stroke-linecap="round"/></symbol>
  <symbol id="archive" viewBox="0 0 24 24"><path d="M4 7h16l-2 13H6L4 7z" fill="none" stroke="currentColor" stroke-width="2" stroke-linejoin="round"/><path d="M3 4h18v3H3zM10 12h4" fill="none" stroke="currentColor" stroke-width="2" stroke-linecap="round"/></symbol>
  <symbol id="postings" viewBox="0 0 24 24"><path d="M5 6h14M5 12h14M5 18h8" fill="none" stroke="currentColor" stroke-width="2" stroke-linecap="round"/></symbol>
  <symbol id="groups" viewBox="0 0 24 24"><path d="M9 11a4 4 0 110-8 4 4 0 010 8zM17 13a3 3 0 100-6 3 3 0 000 6z" fill="none" stroke="currentColor" stroke-width="2" stroke-linejoin="round"/><path d="M3 21v-2a6 6 0 0112 0v2M15 21v-1.5a4.5 4.5 0 018 0V21" fill="none" stroke="currentColor" stroke-width="2" stroke-linecap="round" stroke-linejoin="round"/></symbol>
  <symbol id="security" viewBox="0 0 24 24"><path d="M12 3l8 4v5c0 5-3.5 9-8 9s-8-4-8-9V7l8-4z" fill="none" stroke="currentColor" stroke-width="2" stroke-linejoin="round"/><path d="M9 12l2 2 4-4" fill="none" stroke="currentColor" stroke-width="2" stroke-linecap="round" stroke-linejoin="round"/></symbol>
</svg>
