<svg xmlns="http://www.w3.org/2000/svg" style="display:none">
  <symbol id="plus" viewBox="0 0 24 24" fill="none" stroke="currentColor" stroke-width="2" stroke-linecap="round" stroke-linejoin="round">
    <path d="M12 5v14M5 12h14" />
  </symbol>
  <symbol id="save" viewBox="0 0 24 24" fill="none" stroke="currentColor" stroke-width="2" stroke-linecap="round" stroke-linejoin="round">
    <path d="M5 4h11l3 3v13a1 1 0 0 1-1 1H5a1 1 0 0 1-1-1V5a1 1 0 0 1 1-1z" />
    <path d="M12 16a3 3 0 1 0 0-6 3 3 0 0 0 0 6z" />
    <path d="M12 4v5h5" />
  </symbol>
  <symbol id="delete" viewBox="0 0 24 24" fill="none" stroke="currentColor" stroke-width="2" stroke-linecap="round" stroke-linejoin="round">
    <path d="M3 6h18" />
    <path d="M8 6v12a2 2 0 0 0 2 2h4a2 2 0 0 0 2-2V6" />
    <path d="M10 6V4h4v2" />
  </symbol>
  <symbol id="bank" viewBox="0 0 24 24" fill="none" stroke="currentColor" stroke-width="2" stroke-linecap="round" stroke-linejoin="round">
    <path d="M3 10h18" />
    <path d="M5 10v8" />
    <path d="M19 10v8" />
    <path d="M9 10v8" />
    <path d="M15 10v8" />
    <path d="M2 18h20" />
    <path d="M12 2 3 7v1h18V7l-9-5z" />
  </symbol>
  <symbol id="back" viewBox="0 0 24 24" fill="none" stroke="currentColor" stroke-width="2" stroke-linecap="round" stroke-linejoin="round">
    <path d="M9 5 2 12l7 7" />
    <path d="M2 12h20" />
  </symbol>
  <symbol id="clear" viewBox="0 0 24 24" fill="none" stroke="currentColor" stroke-width="2" stroke-linecap="round" stroke-linejoin="round">
    <path d="M18 6 6 18" />
    <path d="M6 6l12 12" />
  </symbol>
  <!-- alias for close to match UI references -->
  <symbol id="close" viewBox="0 0 24 24" fill="none" stroke="currentColor" stroke-width="2" stroke-linecap="round" stroke-linejoin="round">
    <path d="M18 6 6 18" />
    <path d="M6 6l12 12" />
  </symbol>
  <symbol id="groups" viewBox="0 0 24 24" fill="none" stroke="currentColor" stroke-width="2" stroke-linecap="round" stroke-linejoin="round">
    <circle cx="9" cy="8" r="4" />
    <path d="M17 11c1.657 0 3-1.79 3-4s-1.343-4-3-4" />
    <path d="M2 21v-2a4 4 0 0 1 4-4h6a4 4 0 0 1 4 4v2" />
    <path d="M17 13a4 4 0 0 1 4 4v2" />
  </symbol>
  <symbol id="accounts" viewBox="0 0 24 24" fill="none" stroke="currentColor" stroke-width="2" stroke-linecap="round" stroke-linejoin="round">
    <rect x="3" y="4" width="18" height="14" rx="2" />
    <path d="M3 10h18" />
  </symbol>
  <symbol id="arrow-right" viewBox="0 0 24 24" fill="none" stroke="currentColor" stroke-width="2" stroke-linecap="round" stroke-linejoin="round">
    <path d="M5 12h14" />
    <path d="M13 18l6-6-6-6" />
  </symbol>
	<symbol id="refresh" viewBox="0 0 24 24">
		<path d="M17.65 6.35A7.95 7.95 0 0 0 12 4a8 8 0 1 0 7.45 10.32 1 1 0 1 0-1.9-.64A6 6 0 1 1 12 6a5.94 5.94 0 0 1 4.24 1.76L14 10h6V4l-2.35 2.35z"/>
	</symbol>
	<symbol id="forward" viewBox="0 0 24 24" fill="none" stroke="currentColor" stroke-width="2" stroke-linecap="round" stroke-linejoin="round">
		<path d="M15 5l7 7-7 7"/>
		<path d="M2 12h20"/>
	</symbol>
    <symbol id="archive" viewBox="0 0 24 24" fill="none" stroke="currentColor" stroke-width="2" stroke-linecap="round" stroke-linejoin="round">
      <rect x="3" y="3" width="18" height="4" />
      <path d="M5 7v11a2 2 0 0 0 2 2h10a2 2 0 0 0 2-2V7" />
      <polyline points="10 12 12 14 14 12" />
    </symbol>
	<symbol id="merge" viewBox="0 0 24 24" stroke="currentColor" fill="none" stroke-width="2" stroke-linecap="round" stroke-linejoin="round">
		<path d="M7 3v6a4 4 0 0 0 4 4h2" />
		<path d="M17 21v-6a4 4 0 0 0 -4 -4h-2" />
		<path d="M17 3h0" />
		<path d="M7 21h0" />
	</symbol>
	<symbol id="check" viewBox="0 0 24 24" fill="none" stroke="currentColor" stroke-width="2" stroke-linecap="round" stroke-linejoin="round">
		<path d="M20 6L9 17l-5-5" />
	</symbol>
	<symbol id="warning" viewBox="0 0 24 24" fill="none" stroke="currentColor" stroke-width="2" stroke-linecap="round" stroke-linejoin="round">
		<path d="M10.29 3.86L1.82 18a2 2 0 0 0 1.71 3h16.94a2 2 0 0 0 1.71-3L13.71 3.86a2 2 0 0 0-3.42 0z" />
		<line x1="12" y1="9" x2="12" y2="13" />
		<line x1="12" y1="17" x2="12" y2="17" />
	</symbol>
	<symbol id="link" viewBox="0 0 24 24" fill="none" stroke="currentColor" stroke-width="2" stroke-linecap="round" stroke-linejoin="round">
		<path d="M10 13a5 5 0 0 0 7.54.54l2-2a5 5 0 0 0-7.07-7.07l-1.4 1.4" />
		<path d="M14 11a5 5 0 0 0-7.54-.54l-2 2a5 5 0 0 0 7.07 7.07l1.4-1.4" />
	</symbol>
	<symbol id="unlink" viewBox="0 0 24 24" fill="none" stroke="currentColor" stroke-width="2" stroke-linecap="round" stroke-linejoin="round">
		<path d="M4 9l2-2a5 5 0 0 1 7.07 0l1.05 1.05" />
		<path d="M20 15l-2 2a5 5 0 0 1-7.07 0L9.88 15.95" />
		<path d="M15 9l2-2" />
		<path d="M9 15l-2 2" />
		<path d="M3 3l18 18" />
	</symbol>
	<symbol id="external" viewBox="0 0 24 24" fill="none" stroke="currentColor" stroke-width="2" stroke-linecap="round" stroke-linejoin="round">
		<path d="M14 3h7v7" />
		<path d="M10 14L21 3" />
		<path d="M5 7v11a1 1 0 0 0 1 1h11" />
	</symbol>
	<symbol id="security" viewBox="0 0 24 24"><path fill="currentColor" d="M12 1 3 5v6c0 5.55 3.84 10.74 9 12 5.16-1.26 9-6.45 9-12V5l-9-4zm0 2.18 7 3.11v4.71c0 4.5-3 8.84-7 10-4-1.16-7-5.5-7-10V6.29l7-3.11z"/></symbol>
	<symbol id="postings" viewBox="0 0 24 24" fill="none" stroke="currentColor" stroke-width="2" stroke-linecap="round" stroke-linejoin="round">
    <path d="M3 5h18" />
    <path d="M3 12h18" />
    <path d="M3 19h18" />
  </symbol>
  <!-- Added: play icon -->
  <symbol id="play" viewBox="0 0 24 24" fill="currentColor" stroke="none">
    <path d="M8 5v14l11-7z" />
  </symbol>
  <!-- Added: download icon -->
  <symbol id="download" viewBox="0 0 24 24" fill="none" stroke="currentColor" stroke-width="2" stroke-linecap="round" stroke-linejoin="round">
    <path d="M12 3v12" />
    <path d="M7 10l5 5 5-5" />
    <path d="M5 19h14" />
  </symbol>
</svg>
