<svg xmlns="http://www.w3.org/2000/svg" style="display:none">
  <symbol id="plus" viewBox="0 0 24 24" fill="none" stroke="currentColor" stroke-width="2" stroke-linecap="round" stroke-linejoin="round">
    <path d="M12 5v14M5 12h14" />
  </symbol>
  <symbol id="save" viewBox="0 0 24 24" fill="none" stroke="currentColor" stroke-width="2" stroke-linecap="round" stroke-linejoin="round">
    <path d="M5 4h11l3 3v13a1 1 0 0 1-1 1H5a1 1 0 0 1-1-1V5a1 1 0 0 1 1-1z" />
    <path d="M12 16a3 3 0 1 0 0-6 3 3 0 0 0 0 6z" />
    <path d="M12 4v5h5" />
  </symbol>
  <symbol id="delete" viewBox="0 0 24 24" fill="none" stroke="currentColor" stroke-width="2" stroke-linecap="round" stroke-linejoin="round">
    <path d="M3 6h18" />
    <path d="M8 6v12a2 2 0 0 0 2 2h4a2 2 0 0 0 2-2V6" />
    <path d="M10 6V4h4v2" />
  </symbol>
  <symbol id="bank" viewBox="0 0 24 24" fill="none" stroke="currentColor" stroke-width="2" stroke-linecap="round" stroke-linejoin="round">
    <path d="M3 10h18" />
    <path d="M5 10v8" />
    <path d="M19 10v8" />
    <path d="M9 10v8" />
    <path d="M15 10v8" />
    <path d="M2 18h20" />
    <path d="M12 2 3 7v1h18V7l-9-5z" />
  </symbol>
  <symbol id="back" viewBox="0 0 24 24" fill="none" stroke="currentColor" stroke-width="2" stroke-linecap="round" stroke-linejoin="round">
    <path d="M9 5 2 12l7 7" />
    <path d="M2 12h20" />
  </symbol>
  <symbol id="clear" viewBox="0 0 24 24" fill="none" stroke="currentColor" stroke-width="2" stroke-linecap="round" stroke-linejoin="round">
    <path d="M18 6 6 18" />
    <path d="M6 6l12 12" />
  </symbol>
  <symbol id="groups" viewBox="0 0 24 24" fill="none" stroke="currentColor" stroke-width="2" stroke-linecap="round" stroke-linejoin="round">
    <circle cx="9" cy="8" r="4" />
    <path d="M17 11c1.657 0 3-1.79 3-4s-1.343-4-3-4" />
    <path d="M2 21v-2a4 4 0 0 1 4-4h6a4 4 0 0 1 4 4v2" />
    <path d="M17 13a4 4 0 0 1 4 4v2" />
  </symbol>
  <symbol id="accounts" viewBox="0 0 24 24" fill="none" stroke="currentColor" stroke-width="2" stroke-linecap="round" stroke-linejoin="round">
    <rect x="3" y="4" width="18" height="14" rx="2" />
    <path d="M3 10h18" />
  </symbol>
  <symbol id="arrow-right" viewBox="0 0 24 24" fill="none" stroke="currentColor" stroke-width="2" stroke-linecap="round" stroke-linejoin="round">
    <path d="M5 12h14" />
    <path d="M13 18l6-6-6-6" />
  </symbol>
	<symbol id="refresh" viewBox="0 0 24 24">
		<path d="M17.65 6.35A7.95 7.95 0 0 0 12 4a8 8 0 1 0 7.45 10.32 1 1 0 1 0-1.9-.64A6 6 0 1 1 12 6a5.94 5.94 0 0 1 4.24 1.76L14 10h6V4l-2.35 2.35z"/>
	</symbol>
</svg>
